<mxfile host="app.diagrams.net" modified="2023-09-29T08:42:00.370Z" agent="Mozilla/5.0 (Windows NT 10.0; Win64; x64) AppleWebKit/537.36 (KHTML, like Gecko) Chrome/117.0.0.0 Safari/537.36" etag="0TjxLwit1XlLIiCuRJ21" version="22.0.0" type="device">
  <diagram name="Page-1" id="LFoEJDrIkROvghh7rp6-">
    <mxGraphModel dx="1235" dy="628" grid="1" gridSize="10" guides="1" tooltips="1" connect="1" arrows="1" fold="1" page="1" pageScale="1" pageWidth="827" pageHeight="1169" math="0" shadow="0">
      <root>
        <mxCell id="0" />
        <mxCell id="1" parent="0" />
        <mxCell id="md_hEC9lvGqwlU5XeiMO-130" value="" style="edgeStyle=orthogonalEdgeStyle;rounded=0;orthogonalLoop=1;jettySize=auto;html=1;" parent="1" source="md_hEC9lvGqwlU5XeiMO-1" target="md_hEC9lvGqwlU5XeiMO-2" edge="1">
          <mxGeometry relative="1" as="geometry" />
        </mxCell>
        <mxCell id="md_hEC9lvGqwlU5XeiMO-1" value="" style="ellipse;whiteSpace=wrap;html=1;aspect=fixed;" parent="1" vertex="1">
          <mxGeometry x="240" y="50" width="40" height="40" as="geometry" />
        </mxCell>
        <mxCell id="md_hEC9lvGqwlU5XeiMO-2" value="&lt;font style=&quot;font-size: 18px;&quot;&gt;x, n&lt;/font&gt;" style="shape=parallelogram;perimeter=parallelogramPerimeter;whiteSpace=wrap;html=1;fixedSize=1;" parent="1" vertex="1">
          <mxGeometry x="200" y="130" width="120" height="60" as="geometry" />
        </mxCell>
        <mxCell id="md_hEC9lvGqwlU5XeiMO-3" value="" style="endArrow=classic;html=1;rounded=0;" parent="1" edge="1">
          <mxGeometry width="50" height="50" relative="1" as="geometry">
            <mxPoint x="259.76" y="90" as="sourcePoint" />
            <mxPoint x="259.76" y="130" as="targetPoint" />
          </mxGeometry>
        </mxCell>
        <mxCell id="md_hEC9lvGqwlU5XeiMO-24" value="&lt;span style=&quot;font-size: 18px;&quot;&gt;i &amp;lt; n&lt;/span&gt;" style="rhombus;whiteSpace=wrap;html=1;" parent="1" vertex="1">
          <mxGeometry x="198" y="330" width="120" height="80" as="geometry" />
        </mxCell>
        <mxCell id="md_hEC9lvGqwlU5XeiMO-26" value="" style="endArrow=classic;html=1;rounded=0;" parent="1" edge="1">
          <mxGeometry width="50" height="50" relative="1" as="geometry">
            <mxPoint x="257.71" y="410" as="sourcePoint" />
            <mxPoint x="257.71" y="450" as="targetPoint" />
          </mxGeometry>
        </mxCell>
        <mxCell id="md_hEC9lvGqwlU5XeiMO-27" value="&lt;font size=&quot;3&quot;&gt;Sai&lt;/font&gt;" style="text;html=1;align=center;verticalAlign=middle;resizable=0;points=[];autosize=1;strokeColor=none;fillColor=none;" parent="1" vertex="1">
          <mxGeometry x="312" y="340" width="50" height="30" as="geometry" />
        </mxCell>
        <mxCell id="md_hEC9lvGqwlU5XeiMO-28" value="&lt;font size=&quot;3&quot;&gt;Đúng&lt;br&gt;&lt;/font&gt;" style="text;html=1;align=center;verticalAlign=middle;resizable=0;points=[];autosize=1;strokeColor=none;fillColor=none;" parent="1" vertex="1">
          <mxGeometry x="208" y="400" width="60" height="30" as="geometry" />
        </mxCell>
        <mxCell id="md_hEC9lvGqwlU5XeiMO-60" value="" style="ellipse;whiteSpace=wrap;html=1;aspect=fixed;" parent="1" vertex="1">
          <mxGeometry x="238" y="770" width="40" height="40" as="geometry" />
        </mxCell>
        <mxCell id="md_hEC9lvGqwlU5XeiMO-61" value="" style="ellipse;whiteSpace=wrap;html=1;aspect=fixed;" parent="1" vertex="1">
          <mxGeometry x="243" y="775" width="30" height="30" as="geometry" />
        </mxCell>
        <mxCell id="md_hEC9lvGqwlU5XeiMO-116" value="&lt;font style=&quot;font-size: 18px;&quot;&gt;t&lt;br&gt;&lt;/font&gt;" style="shape=card;whiteSpace=wrap;html=1;flipH=1;flipV=1;size=20;" parent="1" vertex="1">
          <mxGeometry x="198" y="670" width="120" height="60" as="geometry" />
        </mxCell>
        <mxCell id="md_hEC9lvGqwlU5XeiMO-125" value="" style="endArrow=none;html=1;rounded=0;" parent="1" edge="1">
          <mxGeometry width="50" height="50" relative="1" as="geometry">
            <mxPoint x="158" y="579.5700000000002" as="sourcePoint" />
            <mxPoint x="198" y="579.5700000000002" as="targetPoint" />
          </mxGeometry>
        </mxCell>
        <mxCell id="md_hEC9lvGqwlU5XeiMO-126" value="" style="endArrow=none;html=1;rounded=0;" parent="1" edge="1">
          <mxGeometry width="50" height="50" relative="1" as="geometry">
            <mxPoint x="158" y="370" as="sourcePoint" />
            <mxPoint x="158" y="580" as="targetPoint" />
          </mxGeometry>
        </mxCell>
        <mxCell id="md_hEC9lvGqwlU5XeiMO-129" value="&lt;font style=&quot;font-size: 18px;&quot;&gt;i = 0, t = 1&lt;/font&gt;" style="rounded=0;whiteSpace=wrap;html=1;" parent="1" vertex="1">
          <mxGeometry x="200" y="230" width="120" height="60" as="geometry" />
        </mxCell>
        <mxCell id="md_hEC9lvGqwlU5XeiMO-131" value="" style="endArrow=classic;html=1;rounded=0;" parent="1" edge="1">
          <mxGeometry width="50" height="50" relative="1" as="geometry">
            <mxPoint x="259.76" y="190" as="sourcePoint" />
            <mxPoint x="259.76" y="230" as="targetPoint" />
          </mxGeometry>
        </mxCell>
        <mxCell id="md_hEC9lvGqwlU5XeiMO-134" value="" style="endArrow=classic;html=1;rounded=0;" parent="1" edge="1">
          <mxGeometry width="50" height="50" relative="1" as="geometry">
            <mxPoint x="259.67999999999995" y="290" as="sourcePoint" />
            <mxPoint x="259.67999999999995" y="330" as="targetPoint" />
          </mxGeometry>
        </mxCell>
        <mxCell id="md_hEC9lvGqwlU5XeiMO-138" value="&lt;font style=&quot;font-size: 18px;&quot;&gt;t = t * x&lt;/font&gt;" style="rounded=0;whiteSpace=wrap;html=1;" parent="1" vertex="1">
          <mxGeometry x="198" y="450" width="120" height="60" as="geometry" />
        </mxCell>
        <mxCell id="md_hEC9lvGqwlU5XeiMO-139" value="" style="endArrow=classic;html=1;rounded=0;" parent="1" edge="1">
          <mxGeometry width="50" height="50" relative="1" as="geometry">
            <mxPoint x="158" y="369.38" as="sourcePoint" />
            <mxPoint x="198" y="369.38" as="targetPoint" />
          </mxGeometry>
        </mxCell>
        <mxCell id="md_hEC9lvGqwlU5XeiMO-140" value="" style="endArrow=none;html=1;rounded=0;" parent="1" edge="1">
          <mxGeometry width="50" height="50" relative="1" as="geometry">
            <mxPoint x="358" y="630" as="sourcePoint" />
            <mxPoint x="358.37" y="370" as="targetPoint" />
          </mxGeometry>
        </mxCell>
        <mxCell id="md_hEC9lvGqwlU5XeiMO-141" value="" style="endArrow=none;html=1;rounded=0;" parent="1" edge="1">
          <mxGeometry width="50" height="50" relative="1" as="geometry">
            <mxPoint x="258" y="630" as="sourcePoint" />
            <mxPoint x="358" y="630" as="targetPoint" />
          </mxGeometry>
        </mxCell>
        <mxCell id="md_hEC9lvGqwlU5XeiMO-143" value="" style="endArrow=none;html=1;rounded=0;" parent="1" edge="1">
          <mxGeometry width="50" height="50" relative="1" as="geometry">
            <mxPoint x="318" y="370" as="sourcePoint" />
            <mxPoint x="358" y="370" as="targetPoint" />
          </mxGeometry>
        </mxCell>
        <mxCell id="md_hEC9lvGqwlU5XeiMO-144" value="" style="endArrow=classic;html=1;rounded=0;" parent="1" edge="1">
          <mxGeometry width="50" height="50" relative="1" as="geometry">
            <mxPoint x="257.92" y="630" as="sourcePoint" />
            <mxPoint x="257.92" y="670" as="targetPoint" />
          </mxGeometry>
        </mxCell>
        <mxCell id="md_hEC9lvGqwlU5XeiMO-145" value="" style="endArrow=classic;html=1;rounded=0;" parent="1" edge="1">
          <mxGeometry width="50" height="50" relative="1" as="geometry">
            <mxPoint x="257.7" y="730" as="sourcePoint" />
            <mxPoint x="257.7" y="770" as="targetPoint" />
          </mxGeometry>
        </mxCell>
        <mxCell id="md_hEC9lvGqwlU5XeiMO-146" value="" style="endArrow=classic;html=1;rounded=0;" parent="1" edge="1">
          <mxGeometry width="50" height="50" relative="1" as="geometry">
            <mxPoint x="257.57" y="510" as="sourcePoint" />
            <mxPoint x="257.57" y="550" as="targetPoint" />
          </mxGeometry>
        </mxCell>
        <mxCell id="md_hEC9lvGqwlU5XeiMO-147" value="&lt;font style=&quot;font-size: 18px;&quot;&gt;i = i + 1&lt;/font&gt;" style="rounded=0;whiteSpace=wrap;html=1;" parent="1" vertex="1">
          <mxGeometry x="198" y="550" width="120" height="60" as="geometry" />
        </mxCell>
      </root>
    </mxGraphModel>
  </diagram>
</mxfile>
